<?xml version="1.0" standalone="no"?>
<!DOCTYPE svg PUBLIC "-//W3C//DTD SVG 20010904//EN"
 "http://www.w3.org/TR/2001/REC-SVG-20010904/DTD/svg10.dtd">
<svg version="1.0" xmlns="http://www.w3.org/2000/svg"
 width="300.000000pt" height="257.000000pt" viewBox="0 0 300.000000 257.000000"
 preserveAspectRatio="xMidYMid meet">
<metadata>
Created by potrace 1.10, written by Peter Selinger 2001-2011
</metadata>
<g transform="translate(0.000000,257.000000) scale(0.100000,-0.100000)"
fill="#000000" stroke="none">
<path d="M720 2265 c-31 -32 -32 -52 -1 -22 11 10 14 10 18 0 3 -7 9 -13 15
-13 6 0 6 6 -2 15 -10 12 -10 18 0 30 26 32 2 23 -30 -10z"/>
<path d="M1488 2278 c-46 -16 -68 -65 -68 -150 l0 -75 -52 -40 c-29 -22 -52
-45 -50 -52 1 -6 -9 -23 -23 -37 l-25 -25 0 25 c0 33 10 57 21 50 5 -3 9 10 9
29 0 46 -25 67 -82 67 -68 0 -78 -17 -78 -127 l0 -90 -41 -29 c-22 -15 -47
-37 -55 -48 -34 -49 -2 -116 55 -116 16 0 87 21 158 46 70 25 136 48 146 51
14 5 17 -1 17 -38 -1 -43 -3 -45 -65 -89 -36 -25 -73 -44 -82 -42 -10 1 -34 5
-53 8 -22 4 -50 0 -73 -9 -29 -13 -37 -13 -37 -3 0 7 -9 25 -21 40 -16 20 -29
26 -59 26 -34 0 -42 4 -55 30 -50 97 -199 112 -291 29 -17 -16 -26 -18 -48 -9
-64 24 -151 3 -208 -51 -21 -20 -38 -45 -38 -57 0 -20 -5 -22 -49 -22 -28 0
-52 -3 -54 -7 -3 -5 21 -8 54 -8 56 0 59 1 59 25 0 39 27 70 84 96 55 26 105
30 154 13 27 -9 34 -8 54 11 56 54 160 67 219 27 19 -12 43 -37 54 -54 17 -28
26 -32 62 -33 44 0 73 -25 73 -62 0 -22 3 -22 58 -3 49 17 112 11 112 -11 0
-7 -19 -18 -42 -24 -49 -13 -143 -73 -164 -106 -13 -19 -19 -21 -53 -12 -48
12 -139 -5 -174 -33 -16 -12 -41 -19 -69 -19 -23 -1 -68 -10 -98 -21 -85 -32
-115 -34 -138 -11 -16 16 -29 19 -65 15 -72 -8 -116 4 -135 37 -9 16 -25 31
-35 34 -14 3 -13 -1 7 -21 14 -14 26 -29 26 -33 0 -17 63 -32 120 -28 49 3 63
1 77 -14 9 -10 26 -18 39 -18 22 0 22 -1 -7 -29 -40 -40 -40 -91 -1 -120 36
-27 39 -30 65 -70 12 -19 46 -48 76 -64 44 -25 70 -32 150 -39 53 -4 120 -11
149 -14 28 -3 64 -2 80 3 19 7 36 6 57 -3 17 -7 56 -16 87 -20 l57 -7 -65 -76
c-69 -80 -69 -92 2 -72 l37 10 -29 -32 c-16 -18 -47 -52 -69 -76 l-40 -43 38
6 c44 8 44 7 -11 -64 -51 -65 -59 -81 -21 -39 49 53 102 129 87 125 -75 -24
-75 -19 -4 53 39 39 67 73 64 76 -3 3 -25 1 -49 -4 -24 -5 -44 -9 -46 -8 -1 1
25 34 57 73 l60 72 62 4 c35 3 64 4 66 3 1 -1 -16 -22 -38 -47 -42 -48 -47
-58 -30 -58 6 0 10 5 10 11 0 6 23 37 51 69 l50 58 45 -20 c33 -14 63 -19 112
-17 37 1 108 -4 159 -11 l91 -12 27 -75 c15 -41 29 -72 32 -70 2 3 -10 41 -27
84 l-30 80 -88 8 c-48 4 -123 8 -167 9 -52 1 -91 7 -113 18 -31 16 -35 16 -79
-4 -41 -18 -60 -20 -142 -15 -53 3 -113 11 -134 17 -36 11 -38 12 -20 26 10 8
-2 5 -26 -6 -34 -17 -54 -20 -95 -16 -28 4 -94 10 -146 15 -71 6 -108 14 -146
34 -56 29 -108 82 -100 103 3 9 -1 14 -12 14 -34 0 -62 29 -62 64 0 72 116
139 241 140 55 1 72 4 62 11 -12 9 -10 13 12 23 51 23 114 32 156 23 38 -9 43
-7 65 18 30 36 94 80 140 96 37 12 38 12 59 -19 19 -29 25 -31 88 -34 l66 -3
20 -44 c22 -50 55 -71 96 -61 27 7 65 58 65 89 0 14 10 17 68 17 54 0 72 4 85
18 28 31 21 72 -20 116 l-38 39 33 -19 c19 -10 42 -31 53 -46 17 -24 22 -25
54 -16 63 20 169 -41 151 -87 -4 -11 2 -15 20 -15 53 0 136 -62 126 -94 -2 -5
14 -6 34 -3 45 7 124 -10 131 -29 3 -9 15 -11 33 -8 27 6 68 -9 82 -30 13 -19
9 -49 -9 -68 -9 -10 -11 -18 -5 -18 6 0 19 12 29 26 16 25 16 28 0 57 -10 16
-16 31 -15 33 2 1 20 -3 41 -9 34 -11 37 -14 31 -41 -4 -20 -3 -26 6 -21 6 4
9 9 6 12 -3 3 1 21 9 40 19 44 19 52 2 28 -11 -13 -21 -16 -43 -11 -16 4 -56
9 -89 12 -33 3 -79 14 -102 25 -27 13 -58 19 -83 18 -36 -3 -44 1 -66 29 -28
36 -72 62 -104 62 -13 0 -20 7 -20 18 0 10 -5 23 -12 30 -20 20 6 35 72 40 37
3 57 8 53 14 -3 6 0 8 8 6 8 -3 13 -11 12 -17 -2 -6 2 -11 7 -11 6 0 10 6 10
13 0 18 49 64 83 76 39 15 111 14 151 -3 20 -8 39 -10 47 -5 46 29 139 -16
139 -67 0 -20 5 -24 31 -24 16 0 28 4 25 9 -3 5 -15 7 -26 4 -16 -4 -20 0 -20
20 0 16 -11 35 -31 52 -28 23 -40 26 -98 25 -36 0 -90 2 -120 6 -69 8 -126 -9
-163 -48 -16 -17 -32 -28 -35 -24 -4 3 -1 12 5 18 7 7 12 16 12 22 0 5 -15 -4
-33 -22 -24 -23 -42 -32 -67 -32 -19 -1 -46 -7 -59 -14 -20 -11 -28 -10 -60 6
-27 15 -48 18 -85 14 -42 -5 -51 -2 -66 17 -10 13 -35 32 -57 42 -56 29 -103
75 -103 102 0 13 2 23 3 23 2 0 66 -22 143 -50 76 -27 154 -50 172 -50 40 0
72 30 72 68 0 35 -19 61 -69 96 l-41 29 0 92 c0 110 -10 125 -83 125 -57 0
-87 -27 -87 -78 0 -28 3 -32 18 -28 11 4 19 1 19 -6 0 -7 3 -23 7 -35 4 -13 4
-23 -1 -23 -19 0 -53 32 -51 47 2 9 -19 34 -48 57 l-51 41 -4 87 c-4 82 -6 90
-34 117 -35 33 -69 43 -107 29z m73 -85 c6 -18 9 -148 7 -363 -3 -295 -5 -340
-21 -374 -15 -34 -19 -38 -31 -25 -29 31 -36 109 -36 429 0 202 4 328 10 341
16 30 58 25 71 -8z m-114 -220 c-3 -2 -14 1 -25 8 -19 12 -19 12 2 44 l21 32
3 -40 c2 -21 1 -41 -1 -44z m203 18 c0 -3 -12 -14 -25 -24 l-25 -18 0 47 0 47
25 -23 c14 -13 25 -26 25 -29z m-400 -26 c0 -34 -5 -47 -19 -55 -30 -15 -31
-14 -31 45 0 52 1 55 25 55 23 0 25 -4 25 -45z m600 -10 c0 -59 -1 -60 -31
-45 -14 8 -19 21 -19 55 0 41 2 45 25 45 24 0 25 -3 25 -55z m-432 -57 l-3
-71 -150 -54 c-156 -55 -179 -61 -173 -42 4 12 307 236 321 238 4 1 7 -31 5
-71z m542 -169 c0 -16 -23 -10 -177 48 l-153 56 0 68 0 67 165 -115 c91 -63
165 -119 165 -124z m-68 129 l4 -38 -25 17 c-48 31 -50 36 -17 54 17 9 32 14
33 10 1 -3 3 -23 5 -43z m-690 28 c16 -12 15 -15 -11 -40 -28 -27 -46 -23 -36
8 3 9 7 23 10 31 5 18 15 19 37 1z m248 -96 c0 -32 -9 -37 -27 -19 -9 9 -9 16
0 30 17 27 27 23 27 -11z m186 16 c10 -8 17 -16 14 -18 -3 -2 -15 -12 -27 -22
l-23 -19 0 36 c0 40 6 44 36 23z m12 -150 c32 -34 32 -35 8 -30 -14 2 -28 0
-31 -6 -15 -25 -25 -6 -24 48 0 31 3 49 7 40 4 -10 22 -33 40 -52z m-196 -14
c6 -44 1 -51 -27 -38 -23 10 -23 12 -7 38 21 35 29 35 34 0z m283 -134 c-17
-13 -27 -9 -21 7 4 12 -4 15 -39 15 l-45 0 0 47 0 46 58 -54 c33 -31 53 -57
47 -61z m-315 57 c0 -35 0 -35 -45 -35 -35 0 -43 -3 -39 -15 9 -23 -14 -18
-26 5 -13 24 -3 50 11 29 6 -10 18 -6 51 18 24 18 44 32 46 33 1 0 2 -16 2
-35z m40 -60 c0 -28 -7 -30 -32 -11 -13 10 -15 15 -6 24 20 20 38 13 38 -13z
m167 2 c-2 -6 -13 -17 -25 -25 -20 -13 -22 -13 -17 2 3 9 7 23 10 31 2 9 11
12 20 9 9 -4 14 -11 12 -17z"/>
<path d="M1944 2191 c17 -18 17 -20 -1 -29 -10 -6 -15 -14 -11 -18 4 -4 14 -1
23 6 12 10 18 10 30 0 17 -14 21 0 4 17 -8 8 -8 13 0 17 6 4 11 12 11 18 0 6
-6 6 -15 -2 -12 -10 -19 -10 -27 -2 -20 20 -32 13 -14 -7z"/>
<path d="M540 1781 c0 -5 6 -11 13 -14 10 -4 10 -7 0 -18 -21 -21 -15 -34 6
-15 18 17 20 17 29 -1 6 -10 14 -15 18 -11 4 4 1 14 -6 23 -10 12 -10 18 0 30
14 17 0 21 -17 4 -8 -8 -13 -8 -17 0 -9 13 -26 15 -26 2z"/>
<path d="M2350 1740 c0 -5 5 -10 10 -10 14 0 12 -28 -2 -33 -7 -2 -10 -8 -6
-12 4 -4 15 -2 24 5 13 12 17 11 24 0 5 -8 12 -11 16 -7 4 3 1 13 -5 21 -8 10
-9 16 -1 21 5 3 10 11 10 17 0 6 -6 6 -15 -2 -12 -10 -19 -10 -27 -2 -15 15
-28 15 -28 2z"/>
<path d="M2587 1393 c-13 -13 -17 -14 -17 -4 0 11 -5 10 -20 -4 -12 -11 -29
-16 -45 -13 -14 3 -25 1 -25 -3 0 -19 112 1 126 22 11 18 -2 19 -19 2z"/>
<path d="M2625 1365 c-5 -2 -22 -6 -36 -9 -15 -3 -29 -12 -32 -20 -4 -10 -1
-13 9 -9 7 3 14 9 14 14 0 5 14 9 30 9 17 0 30 5 30 10 0 6 -1 10 -2 9 -2 0
-7 -2 -13 -4z"/>
<path d="M1000 1352 c0 -4 6 -14 12 -20 10 -10 10 -15 -2 -22 -8 -5 -11 -12
-7 -17 5 -4 12 -1 17 7 7 11 11 12 24 0 9 -7 20 -10 23 -6 4 4 1 11 -7 16 -11
7 -12 11 0 24 7 9 9 20 5 24 -4 4 -10 1 -12 -5 -5 -15 -33 -17 -33 -3 0 6 -4
10 -10 10 -5 0 -10 -4 -10 -8z"/>
<path d="M2525 1279 c-4 -6 -7 -26 -8 -44 0 -19 -5 -31 -10 -28 -4 3 -7 -1 -6
-8 2 -8 -3 -25 -10 -37 -7 -13 -11 -26 -9 -28 3 -2 23 32 47 76 23 44 40 80
37 80 -3 0 -12 -12 -21 -27 l-16 -28 6 28 c6 28 1 35 -10 16z"/>
<path d="M1400 1255 c10 -12 10 -18 0 -30 -14 -17 0 -21 17 -4 8 8 13 8 17 0
4 -6 12 -11 18 -11 7 0 6 6 -2 15 -10 12 -10 18 0 30 14 17 0 21 -17 4 -8 -8
-13 -8 -17 0 -4 6 -12 11 -18 11 -7 0 -6 -6 2 -15z"/>
<path d="M2380 1201 c0 -6 8 -11 19 -11 27 0 44 -26 37 -54 -3 -13 -26 -42
-51 -64 -58 -51 -135 -76 -220 -70 -35 2 -62 1 -60 -3 5 -7 -100 -39 -128 -39
-10 0 -22 12 -27 26 -13 34 -13 34 13 34 13 0 32 7 43 16 19 15 19 16 -1 9
-11 -4 -31 -10 -44 -13 -21 -4 -23 -2 -17 14 6 15 5 17 -5 7 -18 -18 -84 -16
-103 2 -8 8 -32 15 -53 15 -22 0 -45 6 -53 13 -12 10 -12 9 -1 -5 9 -12 27
-18 51 -18 21 0 40 -5 42 -11 2 -6 26 -14 54 -16 l50 -5 32 -87 c29 -76 35
-81 16 -13 -5 18 -2 22 17 22 13 1 42 8 64 16 22 9 83 19 136 23 116 10 185
42 236 109 38 50 39 53 16 80 -21 23 -63 39 -63 23z"/>
<path d="M2180 1162 c0 -6 5 -14 11 -18 8 -4 8 -9 0 -17 -17 -17 -13 -31 4
-17 12 10 18 10 30 0 9 -7 19 -10 23 -6 4 4 -1 12 -11 18 -18 9 -18 11 -1 29
18 20 6 27 -14 7 -8 -8 -15 -8 -27 2 -9 8 -15 8 -15 2z"/>
<path d="M2010 924 c0 -12 33 -104 36 -101 5 5 -25 107 -31 107 -3 0 -5 -3 -5
-6z"/>
<path d="M1395 875 c-19 -10 -22 -13 -7 -9 12 3 22 2 22 -1 0 -4 -22 -32 -50
-63 -27 -30 -48 -58 -45 -60 2 -3 18 1 35 8 17 7 32 11 34 9 6 -5 -281 -239
-292 -239 -11 0 -47 -39 -41 -44 3 -3 52 34 110 82 59 48 145 118 192 157 47
38 85 71 83 72 -2 2 -22 -4 -46 -12 -24 -8 -44 -14 -46 -12 -2 1 19 29 47 61
62 73 63 79 4 51z"/>
<path d="M2070 844 c0 -5 16 -51 35 -103 38 -102 41 -116 23 -105 -12 7 35
-81 54 -101 5 -5 -16 62 -47 149 -52 151 -65 182 -65 160z"/>
<path d="M1955 791 c-4 -17 -11 -29 -16 -26 -5 4 -6 -2 -2 -11 6 -15 8 -14 17
7 6 13 15 27 21 31 6 5 6 11 -2 19 -8 8 -13 3 -18 -20z"/>
<path d="M1980 778 c0 -3 10 -28 21 -55 l21 -48 17 38 16 37 28 -50 c16 -27
30 -50 33 -50 6 0 -31 70 -50 95 -15 19 -16 19 -28 -13 l-12 -32 -23 42 c-12
24 -22 40 -23 36z"/>
<path d="M707 363 c18 -2 50 -2 70 0 21 2 7 4 -32 4 -38 0 -55 -2 -38 -4z"/>
<path d="M877 363 c18 -2 50 -2 70 0 21 2 7 4 -32 4 -38 0 -55 -2 -38 -4z"/>
<path d="M1048 363 c17 -2 47 -2 65 0 17 2 3 4 -33 4 -36 0 -50 -2 -32 -4z"/>
<path d="M1208 363 c17 -2 47 -2 65 0 17 2 3 4 -33 4 -36 0 -50 -2 -32 -4z"/>
<path d="M1368 363 c17 -2 47 -2 65 0 17 2 3 4 -33 4 -36 0 -50 -2 -32 -4z"/>
<path d="M1528 363 c17 -2 47 -2 65 0 17 2 3 4 -33 4 -36 0 -50 -2 -32 -4z"/>
<path d="M1687 363 c18 -2 50 -2 70 0 21 2 7 4 -32 4 -38 0 -55 -2 -38 -4z"/>
<path d="M1857 363 c18 -2 50 -2 70 0 21 2 7 4 -32 4 -38 0 -55 -2 -38 -4z"/>
<path d="M2017 363 c18 -2 50 -2 70 0 21 2 7 4 -32 4 -38 0 -55 -2 -38 -4z"/>
<path d="M2318 363 c23 -2 61 -2 85 0 23 2 4 4 -43 4 -47 0 -66 -2 -42 -4z"/>
<path d="M1122 283 c219 -2 577 -2 795 0 219 1 40 2 -397 2 -437 0 -616 -1
-398 -2z"/>
</g>
</svg>
